<svg width="73" height="75" viewBox="0 0 73 75" fill="none" xmlns="http://www.w3.org/2000/svg">
<g filter="url(#filter0_i_31_92)">
<path d="M38.6162 0.143188C55.8605 0.143188 69.8398 14.1226 69.8398 31.3668V36.3698L55.0283 28.9645L45.0596 40.9274L24.2061 44.5768C24.2233 52.3014 26.6084 56.5854 33.8135 56.5856C43.4956 56.5855 45.9703 52.5044 45.8379 45.274L43.4199 45.778L55.4297 31.3668L72.2422 39.7731L69.8398 40.2731V43.3756C69.8398 60.6199 55.8605 74.5992 38.6162 74.5992H31.4111C14.1669 74.5992 0.1875 60.6199 0.1875 43.3756V31.3668C0.1875 14.1226 14.1669 0.143188 31.4111 0.143188H38.6162ZM45.8223 26.5631C45.8222 13.3532 24.2061 13.3532 24.2061 26.5631V31.3668L45.8223 27.7643V26.5631Z" fill="#E8E3D3"/>
</g>
<defs>
<filter id="filter0_i_31_92" x="0.1875" y="0.143188" width="72.0547" height="78.6331" filterUnits="userSpaceOnUse" color-interpolation-filters="sRGB">
<feFlood flood-opacity="0" result="BackgroundImageFix"/>
<feBlend mode="normal" in="SourceGraphic" in2="BackgroundImageFix" result="shape"/>
<feColorMatrix in="SourceAlpha" type="matrix" values="0 0 0 0 0 0 0 0 0 0 0 0 0 0 0 0 0 0 127 0" result="hardAlpha"/>
<feOffset dy="4.17708"/>
<feGaussianBlur stdDeviation="2.08854"/>
<feComposite in2="hardAlpha" operator="arithmetic" k2="-1" k3="1"/>
<feColorMatrix type="matrix" values="0 0 0 0 0.0392157 0 0 0 0 0.113725 0 0 0 0 0.156863 0 0 0 0.5 0"/>
<feBlend mode="normal" in2="shape" result="effect1_innerShadow_31_92"/>
</filter>
</defs>
</svg>
