<svg width="26" height="26" viewBox="0 0 26 26" fill="none" xmlns="http://www.w3.org/2000/svg">
<path opacity="0.2" d="M25.9293 13.0003C25.9293 20.1422 20.1397 25.9319 12.9979 25.9319C5.856 25.9319 0.0664062 20.1422 0.0664062 13.0003C0.0664062 5.85844 5.856 0.0688477 12.9979 0.0688477C20.1397 0.0688477 25.9293 5.85844 25.9293 13.0003Z" fill="#00A478"/>
<path d="M11.6719 12.7739V10.5116H8.60352V8.52856H17.1778V10.5395H14.1094V12.7739H11.6719Z" fill="#00A478"/>
<path d="M12.8184 11.6567C15.8862 11.6567 18.3527 12.271 18.3535 13.0249C18.3535 13.779 15.8867 14.394 12.8184 14.394C9.75015 14.394 7.28418 13.779 7.28418 13.0249C7.28503 12.271 9.75068 11.6568 12.8184 11.6567ZM12.8184 11.8804C9.60805 11.8804 7.94492 12.7174 7.74316 13.0249C7.94389 13.3042 9.60684 13.7231 12.8184 13.7231C16.0588 13.7231 17.6938 13.3042 17.8945 13.0249C17.693 12.7454 16.0292 11.8804 12.8184 11.8804Z" fill="#00A478"/>
<path d="M14.109 13.4722V11.9082C13.7075 11.8802 13.2774 11.8523 12.8473 11.8523C12.4458 11.8523 12.073 11.8523 11.7002 11.8802V13.4443C12.0443 13.4443 12.4458 13.4722 12.8473 13.4722C13.2774 13.5001 13.7075 13.5001 14.109 13.4722Z" fill="#00A478"/>
<path d="M12.8189 14.394C12.4175 14.394 12.0447 14.394 11.6719 14.3661V18.5276H14.0807V14.3381C13.6792 14.3661 13.2491 14.394 12.8189 14.394Z" fill="#00A478"/>
</svg>
