<svg width="196" height="55" viewBox="0 0 196 55" fill="none" xmlns="http://www.w3.org/2000/svg">
<path d="M18.0358 11.7238C81.515 -2.36677 117.097 -1.55407 180.581 11.7238V27.7596L194.43 28.4884L187.87 40.2497L194.43 54H159.443V39.9711C116.182 32.8869 84.4459 32.9119 38.4451 40.2497V54H2L7.83121 40.2497L2 28.4884L18.0358 27.7596V11.7238Z" fill="url(#paint0_linear_25_6)"/>
<path d="M18.0358 43.7955L38.4451 54M18.0358 43.7955C25.1717 42.4674 31.9505 41.2857 38.4451 40.2497M18.0358 43.7955V27.7596M180.581 43.7955L159.443 54M180.581 43.7955C173.191 42.3489 166.177 41.0739 159.443 39.9711M180.581 43.7955V27.7596M38.4451 54V40.2497M38.4451 54H2L7.83121 40.2497L2 28.4884L18.0358 27.7596M38.4451 40.2497C84.4459 32.9119 116.182 32.8869 159.443 39.9711M18.0358 27.7596V11.7238C81.515 -2.36677 117.097 -1.55407 180.581 11.7238V27.7596M159.443 54V39.9711M159.443 54H194.43L187.87 40.2497L194.43 28.4884L180.581 27.7596" stroke="#003B46" stroke-width="1.4578"/>
<g filter="url(#filter0_d_25_6)">
<path d="M40.517 15.9812V14.5455H48.0604V15.9812H45.1381V24H43.4393V15.9812H40.517ZM51.5516 24.1385C50.8406 24.1385 50.2267 23.9908 49.7096 23.6953C49.1956 23.3968 48.8002 22.9751 48.5232 22.4304C48.2462 21.8826 48.1077 21.2378 48.1077 20.4961C48.1077 19.7667 48.2462 19.1265 48.5232 18.5756C48.8032 18.0217 49.1941 17.5908 49.6958 17.283C50.1974 16.9722 50.7868 16.8168 51.4639 16.8168C51.9009 16.8168 52.3133 16.8875 52.7011 17.0291C53.0919 17.1676 53.4366 17.383 53.7352 17.6754C54.0368 17.9678 54.2738 18.3402 54.4461 18.7926C54.6185 19.242 54.7046 19.7775 54.7046 20.3991V20.9116H48.8925V19.7852H53.1027C53.0996 19.4651 53.0304 19.1804 52.895 18.9311C52.7596 18.6787 52.5703 18.4802 52.3271 18.3356C52.0871 18.1909 51.807 18.1186 51.4869 18.1186C51.1453 18.1186 50.8453 18.2017 50.5867 18.3679C50.3282 18.531 50.1266 18.7464 49.982 19.0142C49.8404 19.2789 49.7681 19.5697 49.765 19.8867V20.87C49.765 21.2824 49.8404 21.6364 49.9912 21.9318C50.142 22.2242 50.3528 22.4489 50.6237 22.6058C50.8945 22.7597 51.2115 22.8366 51.5747 22.8366C51.8178 22.8366 52.0378 22.8028 52.2348 22.7351C52.4318 22.6643 52.6026 22.5612 52.7472 22.4258C52.8919 22.2904 53.0012 22.1226 53.075 21.9226L54.6354 22.098C54.5369 22.5104 54.3492 22.8705 54.0722 23.1783C53.7983 23.483 53.4474 23.7199 53.0196 23.8892C52.5918 24.0554 52.1025 24.1385 51.5516 24.1385ZM58.1589 24.1431C57.7096 24.1431 57.3049 24.0631 56.9448 23.9031C56.5878 23.7399 56.3046 23.4999 56.0953 23.1829C55.8891 22.8659 55.786 22.475 55.786 22.0103C55.786 21.6102 55.8599 21.2794 56.0076 21.0178C56.1554 20.7562 56.3569 20.5469 56.6124 20.3899C56.8678 20.233 57.1556 20.1145 57.4757 20.0344C57.7988 19.9513 58.1328 19.8913 58.4775 19.8544C58.8929 19.8113 59.2299 19.7728 59.4885 19.739C59.747 19.7021 59.9347 19.6467 60.0517 19.5728C60.1717 19.4959 60.2317 19.3774 60.2317 19.2173V19.1896C60.2317 18.8419 60.1286 18.5726 59.9224 18.3817C59.7162 18.1909 59.4192 18.0955 59.0314 18.0955C58.6221 18.0955 58.2974 18.1848 58.0574 18.3633C57.8204 18.5418 57.6603 18.7526 57.5772 18.9957L56.0169 18.7741C56.14 18.3433 56.3431 17.9832 56.6262 17.6939C56.9094 17.4015 57.2556 17.183 57.665 17.0384C58.0743 16.8906 58.5267 16.8168 59.0222 16.8168C59.3638 16.8168 59.7039 16.8568 60.0424 16.9368C60.381 17.0168 60.6903 17.1491 60.9703 17.3338C61.2504 17.5154 61.4751 17.7631 61.6444 18.0771C61.8167 18.391 61.9029 18.7834 61.9029 19.2543V24H60.2963V23.0259H60.2409C60.1394 23.2229 59.9963 23.4076 59.8116 23.5799C59.63 23.7492 59.4007 23.8861 59.1238 23.9908C58.8498 24.0923 58.5282 24.1431 58.1589 24.1431ZM58.5929 22.9151C58.9283 22.9151 59.2192 22.849 59.4654 22.7166C59.7116 22.5812 59.9009 22.4027 60.0332 22.1811C60.1686 21.9595 60.2363 21.7179 60.2363 21.4563V20.6207C60.184 20.6638 60.0948 20.7038 59.9686 20.7408C59.8455 20.7777 59.707 20.81 59.5531 20.8377C59.3992 20.8654 59.2469 20.89 59.0961 20.9116C58.9453 20.9331 58.8145 20.9516 58.7037 20.967C58.4544 21.0008 58.2312 21.0562 58.0343 21.1332C57.8373 21.2101 57.6819 21.3178 57.568 21.4563C57.4541 21.5917 57.3972 21.7672 57.3972 21.9826C57.3972 22.2904 57.5095 22.5227 57.7342 22.6797C57.9589 22.8366 58.2451 22.9151 58.5929 22.9151ZM63.5833 24V16.9091H65.1806V18.114H65.2637C65.4114 17.7077 65.6561 17.3907 65.9977 17.163C66.3393 16.9322 66.7471 16.8168 67.2211 16.8168C67.7012 16.8168 68.1059 16.9337 68.4352 17.1676C68.7676 17.3984 69.0015 17.7139 69.1369 18.114H69.2108C69.3677 17.7201 69.6324 17.4061 70.0048 17.1722C70.3803 16.9353 70.825 16.8168 71.339 16.8168C71.9914 16.8168 72.5239 17.023 72.9363 17.4354C73.3487 17.8478 73.5549 18.4495 73.5549 19.2404V24H71.8791V19.4989C71.8791 19.0588 71.7621 18.7372 71.5282 18.5341C71.2943 18.3279 71.0081 18.2248 70.6696 18.2248C70.2664 18.2248 69.9509 18.351 69.7232 18.6033C69.4985 18.8526 69.3862 19.1773 69.3862 19.5774V24H67.7473V19.4297C67.7473 19.0634 67.6365 18.7711 67.415 18.5526C67.1964 18.334 66.9102 18.2248 66.5563 18.2248C66.3162 18.2248 66.0977 18.2863 65.9007 18.4094C65.7038 18.5295 65.5468 18.7003 65.4299 18.9219C65.3129 19.1404 65.2544 19.3958 65.2544 19.6882V24H63.5833ZM86.6414 17.7354H84.9149C84.8656 17.4523 84.7748 17.2015 84.6425 16.983C84.5102 16.7614 84.3455 16.5736 84.1485 16.4197C83.9516 16.2659 83.7269 16.1504 83.4745 16.0735C83.2252 15.9935 82.9559 15.9535 82.6666 15.9535C82.1527 15.9535 81.6972 16.0827 81.3002 16.3413C80.9031 16.5967 80.5923 16.9722 80.3676 17.4677C80.143 17.9601 80.0306 18.5618 80.0306 19.2727C80.0306 19.996 80.143 20.6054 80.3676 21.1009C80.5954 21.5933 80.9062 21.9657 81.3002 22.218C81.6972 22.4673 82.1511 22.592 82.662 22.592C82.9452 22.592 83.2098 22.555 83.4561 22.4812C83.7053 22.4042 83.9285 22.2919 84.1254 22.1442C84.3255 21.9964 84.4932 21.8149 84.6286 21.5994C84.7671 21.384 84.8625 21.1378 84.9149 20.8608L86.6414 20.87C86.5768 21.3194 86.4368 21.741 86.2213 22.1349C86.009 22.5289 85.7304 22.8767 85.3857 23.1783C85.041 23.4768 84.6379 23.7107 84.1762 23.88C83.7146 24.0462 83.2021 24.1293 82.6389 24.1293C81.808 24.1293 81.0663 23.9369 80.4138 23.5522C79.7613 23.1675 79.2474 22.612 78.8719 21.8857C78.4964 21.1593 78.3087 20.2884 78.3087 19.2727C78.3087 18.254 78.498 17.383 78.8765 16.6598C79.2551 15.9335 79.7706 15.378 80.423 14.9933C81.0755 14.6085 81.8141 14.4162 82.6389 14.4162C83.1652 14.4162 83.6546 14.4901 84.107 14.6378C84.5594 14.7855 84.9626 15.0025 85.3165 15.2887C85.6704 15.5719 85.9613 15.9196 86.189 16.332C86.4198 16.7414 86.5706 17.2092 86.6414 17.7354ZM91.229 24.1385C90.5366 24.1385 89.9364 23.9862 89.4286 23.6815C88.9208 23.3768 88.5269 22.9505 88.2468 22.4027C87.9698 21.8549 87.8313 21.2147 87.8313 20.4822C87.8313 19.7498 87.9698 19.1081 88.2468 18.5572C88.5269 18.0063 88.9208 17.5785 89.4286 17.2738C89.9364 16.9691 90.5366 16.8168 91.229 16.8168C91.9215 16.8168 92.5217 16.9691 93.0295 17.2738C93.5373 17.5785 93.9297 18.0063 94.2067 18.5572C94.4867 19.1081 94.6268 19.7498 94.6268 20.4822C94.6268 21.2147 94.4867 21.8549 94.2067 22.4027C93.9297 22.9505 93.5373 23.3768 93.0295 23.6815C92.5217 23.9862 91.9215 24.1385 91.229 24.1385ZM91.2383 22.7997C91.6138 22.7997 91.9277 22.6966 92.18 22.4904C92.4324 22.2811 92.6201 22.0011 92.7433 21.6502C92.8694 21.2994 92.9325 20.9085 92.9325 20.4776C92.9325 20.0437 92.8694 19.6513 92.7433 19.3004C92.6201 18.9465 92.4324 18.6649 92.18 18.4556C91.9277 18.2463 91.6138 18.1417 91.2383 18.1417C90.8536 18.1417 90.5335 18.2463 90.2781 18.4556C90.0257 18.6649 89.8364 18.9465 89.7102 19.3004C89.5871 19.6513 89.5256 20.0437 89.5256 20.4776C89.5256 20.9085 89.5871 21.2994 89.7102 21.6502C89.8364 22.0011 90.0257 22.2811 90.2781 22.4904C90.5335 22.6966 90.8536 22.7997 91.2383 22.7997ZM96.0452 24V16.9091H97.6425V18.114H97.7256C97.8733 17.7077 98.118 17.3907 98.4596 17.163C98.8012 16.9322 99.209 16.8168 99.683 16.8168C100.163 16.8168 100.568 16.9337 100.897 17.1676C101.229 17.3984 101.463 17.7139 101.599 18.114H101.673C101.83 17.7201 102.094 17.4061 102.467 17.1722C102.842 16.9353 103.287 16.8168 103.801 16.8168C104.453 16.8168 104.986 17.023 105.398 17.4354C105.811 17.8478 106.017 18.4495 106.017 19.2404V24H104.341V19.4989C104.341 19.0588 104.224 18.7372 103.99 18.5341C103.756 18.3279 103.47 18.2248 103.131 18.2248C102.728 18.2248 102.413 18.351 102.185 18.6033C101.96 18.8526 101.848 19.1773 101.848 19.5774V24H100.209V19.4297C100.209 19.0634 100.098 18.7711 99.8769 18.5526C99.6584 18.334 99.3721 18.2248 99.0182 18.2248C98.7781 18.2248 98.5596 18.2863 98.3627 18.4094C98.1657 18.5295 98.0087 18.7003 97.8918 18.9219C97.7748 19.1404 97.7164 19.3958 97.7164 19.6882V24H96.0452ZM107.712 24V16.9091H109.309V18.114H109.393C109.54 17.7077 109.785 17.3907 110.127 17.163C110.468 16.9322 110.876 16.8168 111.35 16.8168C111.83 16.8168 112.235 16.9337 112.564 17.1676C112.896 17.3984 113.13 17.7139 113.266 18.114H113.34C113.497 17.7201 113.761 17.4061 114.134 17.1722C114.509 16.9353 114.954 16.8168 115.468 16.8168C116.12 16.8168 116.653 17.023 117.065 17.4354C117.478 17.8478 117.684 18.4495 117.684 19.2404V24H116.008V19.4989C116.008 19.0588 115.891 18.7372 115.657 18.5341C115.423 18.3279 115.137 18.2248 114.798 18.2248C114.395 18.2248 114.08 18.351 113.852 18.6033C113.627 18.8526 113.515 19.1773 113.515 19.5774V24H111.876V19.4297C111.876 19.0634 111.765 18.7711 111.544 18.5526C111.325 18.334 111.039 18.2248 110.685 18.2248C110.445 18.2248 110.227 18.2863 110.03 18.4094C109.833 18.5295 109.676 18.7003 109.559 18.9219C109.442 19.1404 109.383 19.3958 109.383 19.6882V24H107.712ZM119.379 24V16.9091H121.05V24H119.379ZM120.219 15.9027C119.955 15.9027 119.727 15.815 119.536 15.6396C119.345 15.4611 119.25 15.2472 119.25 14.9979C119.25 14.7455 119.345 14.5316 119.536 14.3562C119.727 14.1777 119.955 14.0884 120.219 14.0884C120.487 14.0884 120.715 14.1777 120.903 14.3562C121.093 14.5316 121.189 14.7455 121.189 14.9979C121.189 15.2472 121.093 15.4611 120.903 15.6396C120.715 15.815 120.487 15.9027 120.219 15.9027ZM128.373 18.7834L126.85 18.9496C126.807 18.7957 126.731 18.651 126.624 18.5156C126.519 18.3802 126.377 18.271 126.199 18.1879C126.02 18.1048 125.802 18.0632 125.543 18.0632C125.196 18.0632 124.903 18.1386 124.666 18.2894C124.432 18.4402 124.317 18.6357 124.32 18.8757C124.317 19.0819 124.392 19.2496 124.546 19.3789C124.703 19.5082 124.962 19.6143 125.322 19.6974L126.531 19.956C127.202 20.1006 127.701 20.3299 128.027 20.6438C128.356 20.9577 128.522 21.3686 128.526 21.8764C128.522 22.3227 128.392 22.7166 128.133 23.0582C127.878 23.3968 127.522 23.6615 127.067 23.8523C126.611 24.0431 126.088 24.1385 125.497 24.1385C124.629 24.1385 123.931 23.9569 123.401 23.5938C122.872 23.2275 122.556 22.7182 122.455 22.0657L124.085 21.9087C124.158 22.2288 124.315 22.4704 124.555 22.6335C124.795 22.7966 125.108 22.8782 125.493 22.8782C125.89 22.8782 126.208 22.7966 126.448 22.6335C126.691 22.4704 126.813 22.2688 126.813 22.0288C126.813 21.8256 126.734 21.6579 126.577 21.5256C126.424 21.3932 126.183 21.2917 125.857 21.2209L124.648 20.967C123.968 20.8254 123.464 20.5869 123.138 20.2514C122.812 19.9129 122.65 19.4851 122.653 18.968C122.65 18.531 122.769 18.1525 123.009 17.8324C123.252 17.5092 123.589 17.2599 124.02 17.0845C124.454 16.906 124.954 16.8168 125.52 16.8168C126.351 16.8168 127.005 16.9937 127.482 17.3477C127.962 17.7016 128.259 18.1802 128.373 18.7834ZM135.508 18.7834L133.985 18.9496C133.941 18.7957 133.866 18.651 133.758 18.5156C133.654 18.3802 133.512 18.271 133.334 18.1879C133.155 18.1048 132.937 18.0632 132.678 18.0632C132.33 18.0632 132.038 18.1386 131.801 18.2894C131.567 18.4402 131.452 18.6357 131.455 18.8757C131.452 19.0819 131.527 19.2496 131.681 19.3789C131.838 19.5082 132.096 19.6143 132.456 19.6974L133.666 19.956C134.337 20.1006 134.836 20.3299 135.162 20.6438C135.491 20.9577 135.657 21.3686 135.66 21.8764C135.657 22.3227 135.526 22.7166 135.268 23.0582C135.012 23.3968 134.657 23.6615 134.202 23.8523C133.746 24.0431 133.223 24.1385 132.632 24.1385C131.764 24.1385 131.065 23.9569 130.536 23.5938C130.007 23.2275 129.691 22.7182 129.59 22.0657L131.219 21.9087C131.293 22.2288 131.45 22.4704 131.69 22.6335C131.93 22.7966 132.243 22.8782 132.627 22.8782C133.024 22.8782 133.343 22.7966 133.583 22.6335C133.826 22.4704 133.948 22.2688 133.948 22.0288C133.948 21.8256 133.869 21.6579 133.712 21.5256C133.558 21.3932 133.318 21.2917 132.992 21.2209L131.782 20.967C131.102 20.8254 130.599 20.5869 130.273 20.2514C129.947 19.9129 129.785 19.4851 129.788 18.968C129.785 18.531 129.904 18.1525 130.144 17.8324C130.387 17.5092 130.724 17.2599 131.155 17.0845C131.589 16.906 132.089 16.8168 132.655 16.8168C133.486 16.8168 134.14 16.9937 134.617 17.3477C135.097 17.7016 135.394 18.1802 135.508 18.7834ZM137.038 24V16.9091H138.71V24H137.038ZM137.879 15.9027C137.614 15.9027 137.386 15.815 137.195 15.6396C137.004 15.4611 136.909 15.2472 136.909 14.9979C136.909 14.7455 137.004 14.5316 137.195 14.3562C137.386 14.1777 137.614 14.0884 137.879 14.0884C138.146 14.0884 138.374 14.1777 138.562 14.3562C138.753 14.5316 138.848 14.7455 138.848 14.9979C138.848 15.2472 138.753 15.4611 138.562 15.6396C138.374 15.815 138.146 15.9027 137.879 15.9027ZM143.521 24.1385C142.829 24.1385 142.228 23.9862 141.721 23.6815C141.213 23.3768 140.819 22.9505 140.539 22.4027C140.262 21.8549 140.123 21.2147 140.123 20.4822C140.123 19.7498 140.262 19.1081 140.539 18.5572C140.819 18.0063 141.213 17.5785 141.721 17.2738C142.228 16.9691 142.829 16.8168 143.521 16.8168C144.214 16.8168 144.814 16.9691 145.321 17.2738C145.829 17.5785 146.222 18.0063 146.499 18.5572C146.779 19.1081 146.919 19.7498 146.919 20.4822C146.919 21.2147 146.779 21.8549 146.499 22.4027C146.222 22.9505 145.829 23.3768 145.321 23.6815C144.814 23.9862 144.214 24.1385 143.521 24.1385ZM143.53 22.7997C143.906 22.7997 144.22 22.6966 144.472 22.4904C144.724 22.2811 144.912 22.0011 145.035 21.6502C145.161 21.2994 145.225 20.9085 145.225 20.4776C145.225 20.0437 145.161 19.6513 145.035 19.3004C144.912 18.9465 144.724 18.6649 144.472 18.4556C144.22 18.2463 143.906 18.1417 143.53 18.1417C143.146 18.1417 142.825 18.2463 142.57 18.4556C142.318 18.6649 142.128 18.9465 142.002 19.3004C141.879 19.6513 141.818 20.0437 141.818 20.4776C141.818 20.9085 141.879 21.2994 142.002 21.6502C142.128 22.0011 142.318 22.2811 142.57 22.4904C142.825 22.6966 143.146 22.7997 143.53 22.7997ZM150.008 19.8452V24H148.337V16.9091H149.934V18.114H150.018C150.181 17.717 150.441 17.4015 150.798 17.1676C151.158 16.9337 151.603 16.8168 152.132 16.8168C152.621 16.8168 153.048 16.9214 153.411 17.1307C153.777 17.34 154.06 17.6431 154.26 18.0401C154.463 18.4371 154.563 18.9188 154.56 19.4851V24H152.889V19.7436C152.889 19.2696 152.766 18.8988 152.52 18.631C152.277 18.3633 151.94 18.2294 151.509 18.2294C151.216 18.2294 150.956 18.294 150.729 18.4233C150.504 18.5495 150.327 18.7326 150.198 18.9727C150.071 19.2127 150.008 19.5036 150.008 19.8452Z" fill="white"/>
</g>
<defs>
<filter id="filter0_d_25_6" x="36.5171" y="14.0884" width="122.048" height="18.0547" filterUnits="userSpaceOnUse" color-interpolation-filters="sRGB">
<feFlood flood-opacity="0" result="BackgroundImageFix"/>
<feColorMatrix in="SourceAlpha" type="matrix" values="0 0 0 0 0 0 0 0 0 0 0 0 0 0 0 0 0 0 127 0" result="hardAlpha"/>
<feOffset dy="4"/>
<feGaussianBlur stdDeviation="2"/>
<feComposite in2="hardAlpha" operator="out"/>
<feColorMatrix type="matrix" values="0 0 0 0 0 0 0 0 0 0 0 0 0 0 0 0 0 0 0.35 0"/>
<feBlend mode="normal" in2="BackgroundImageFix" result="effect1_dropShadow_25_6"/>
<feBlend mode="normal" in="SourceGraphic" in2="effect1_dropShadow_25_6" result="shape"/>
</filter>
<linearGradient id="paint0_linear_25_6" x1="98.215" y1="1.45837" x2="98" y2="39" gradientUnits="userSpaceOnUse">
<stop stop-color="#B8FF5E"/>
<stop offset="1" stop-color="#6E9938"/>
</linearGradient>
</defs>
</svg>
