<svg width="117" height="131" viewBox="0 0 117 131" fill="none" xmlns="http://www.w3.org/2000/svg">
<g filter="url(#filter0_f_352_1191)">
<rect x="20" y="20" width="91" height="91" rx="45.5" fill="#0D2730"/>
</g>
<rect x="26.5317" y="26.1151" width="78.3531" height="78.3531" rx="39.1765" fill="url(#paint0_linear_352_1191)"/>
<rect width="62.9325" height="62.9325" rx="31.4663" transform="matrix(0.707107 0.707107 0.707107 -0.707107 21 65.5)" fill="url(#paint1_linear_352_1191)"/>
<g clip-path="url(#clip0_352_1191)">
<path d="M43.9957 65.2187C43.9946 69.1677 45.0265 73.0235 46.9884 76.422L43.8081 88.034L55.6915 84.9181C58.9782 86.7074 62.6608 87.6449 66.4031 87.6452H66.4129C78.7668 87.6452 88.8232 77.5925 88.8285 65.2364C88.8308 59.249 86.5012 53.6188 82.2687 49.383C78.0369 45.1476 72.4087 42.8138 66.412 42.811C54.0567 42.811 44.001 52.8632 43.9959 65.2187" fill="url(#paint2_linear_352_1191)"/>
<path d="M43.1949 65.2114C43.1936 69.3024 44.2624 73.2962 46.2944 76.8164L43 88.8446L55.3094 85.6171C58.7011 87.4663 62.5198 88.4413 66.4055 88.4427H66.4155C79.2126 88.4427 89.6302 78.0284 89.6357 65.23C89.6378 59.0275 87.2245 53.1949 82.8407 48.8073C78.4564 44.4203 72.6269 42.0026 66.4155 42C53.6162 42 43.2 52.4129 43.1949 65.2114ZM50.5256 76.2102L50.066 75.4806C48.1339 72.4085 47.1141 68.8583 47.1156 65.2129C47.1196 54.575 55.7771 45.9203 66.4228 45.9203C71.5782 45.9225 76.4232 47.9322 80.0673 51.5785C83.7113 55.2252 85.7164 60.0728 85.7152 65.2286C85.7104 75.8664 77.0528 84.5222 66.4155 84.5222H66.4078C62.9442 84.5204 59.5473 83.5903 56.5848 81.8325L55.8798 81.4144L48.5751 83.3296L50.5256 76.2102Z" fill="url(#paint3_linear_352_1191)"/>
<path d="M60.6114 55.5077C60.1768 54.5416 59.7194 54.5221 59.306 54.5052C58.9675 54.4906 58.5806 54.4917 58.194 54.4917C57.8071 54.4917 57.1784 54.6373 56.647 55.2175C56.1151 55.7982 54.6162 57.2017 54.6162 60.0561C54.6162 62.9105 56.6953 65.6693 56.9852 66.0568C57.2754 66.4436 60.9989 72.4887 66.8961 74.8143C71.7973 76.7469 72.7946 76.3626 73.8583 76.2656C74.9222 76.1691 77.2912 74.8626 77.7745 73.5078C78.2581 72.1532 78.2581 70.992 78.1131 70.7493C77.9681 70.5076 77.5812 70.3624 77.001 70.0724C76.4207 69.7824 73.5681 68.3786 73.0364 68.1849C72.5044 67.9915 72.1177 67.8949 71.7308 68.4759C71.3438 69.0559 70.2328 70.3624 69.8941 70.7493C69.5558 71.1372 69.2172 71.1855 68.6371 70.8953C68.0566 70.6042 66.188 69.9922 63.9712 68.0159C62.2464 66.478 61.082 64.5789 60.7435 63.9979C60.405 63.4179 60.7073 63.1035 60.9982 62.8144C61.2589 62.5544 61.5786 62.1369 61.869 61.7982C62.1583 61.4594 62.2548 61.2176 62.4483 60.8307C62.6419 60.4434 62.545 60.1046 62.4002 59.8144C62.2548 59.5242 61.1274 56.6548 60.6114 55.5077Z" fill="white"/>
</g>
<defs>
<filter id="filter0_f_352_1191" x="0.217392" y="0.217392" width="130.565" height="130.565" filterUnits="userSpaceOnUse" color-interpolation-filters="sRGB">
<feFlood flood-opacity="0" result="BackgroundImageFix"/>
<feBlend mode="normal" in="SourceGraphic" in2="BackgroundImageFix" result="shape"/>
<feGaussianBlur stdDeviation="9.8913" result="effect1_foregroundBlur_352_1191"/>
</filter>
<linearGradient id="paint0_linear_352_1191" x1="65.7083" y1="26.1151" x2="65.7083" y2="140.311" gradientUnits="userSpaceOnUse">
<stop stop-color="#212324"/>
<stop offset="1" stop-color="#003B46"/>
</linearGradient>
<linearGradient id="paint1_linear_352_1191" x1="28.8139" y1="-18.6331" x2="33.8238" y2="122.234" gradientUnits="userSpaceOnUse">
<stop stop-color="#212324"/>
<stop offset="1" stop-color="#003B46"/>
</linearGradient>
<linearGradient id="paint2_linear_352_1191" x1="2294.83" y1="4565.1" x2="2294.83" y2="42.811" gradientUnits="userSpaceOnUse">
<stop stop-color="#1FAF38"/>
<stop offset="1" stop-color="#60D669"/>
</linearGradient>
<linearGradient id="paint3_linear_352_1191" x1="2374.78" y1="4726.46" x2="2374.78" y2="42" gradientUnits="userSpaceOnUse">
<stop stop-color="#F9F9F9"/>
<stop offset="1" stop-color="white"/>
</linearGradient>
<clipPath id="clip0_352_1191">
<rect width="46.6357" height="47" fill="white" transform="translate(43 42)"/>
</clipPath>
</defs>
</svg>
